<?xml version="1.0" standalone="no"?>
<!DOCTYPE svg PUBLIC "-//W3C//DTD SVG 20010904//EN"
 "http://www.w3.org/TR/2001/REC-SVG-20010904/DTD/svg10.dtd">
<svg version="1.0"
  xmlns="http://www.w3.org/2000/svg" width="512.000000pt" height="512.000000pt" viewBox="0 0 512.000000 512.000000" preserveAspectRatio="xMidYMid meet">
  <g transform="translate(0.000000,512.000000) scale(0.100000,-0.100000)" stroke="none">
    <path d="M4690 5109 c-167 -24 -423 -152 -612 -306 -321 -261 -414 -524 -272
-767 47 -80 83 -125 171 -217 l74 -76 -87 -94 c-312 -341 -627 -807 -727
-1079 -81 -219 -68 -353 41 -452 112 -101 230 -127 423 -93 349 60 791 274
982 474 82 86 118 147 142 238 43 166 -24 373 -194 600 -25 32 -28 40 -13 36
32 -8 59 28 117 157 177 389 337 857 365 1067 30 219 -1 332 -118 428 -91 75
-179 101 -292 84z m218 -224 c41 -122 -44 -470 -233 -950 -65 -163 -183 -421
-192 -416 -5 2 -45 39 -90 81 -71 68 -80 80 -67 91 26 21 46 70 40 95 -12 45
-111 120 -146 109 -11 -3 -33 -17 -49 -31 l-29 -24 -67 77 c-36 43 -83 112
-103 152 -31 64 -37 85 -37 141 0 57 6 77 39 146 62 125 254 307 444 421 160
96 326 154 427 150 49 -2 50 -3 63 -42z m-582 -1413 c174 -192 247 -302 289
-435 44 -137 29 -239 -49 -346 -156 -212 -776 -493 -1089 -494 -57 0 -81 3
-88 14 -16 23 -2 148 24 224 53 153 179 377 331 589 186 258 448 567 474 558
7 -2 56 -52 108 -110z"/>
    <path d="M2036 4318 c-25 -87 -149 -417 -211 -563 -180 -422 -388 -759 -506
-821 -27 -13 -30 -13 -37 3 -4 10 -7 77 -7 148 1 148 23 301 66 448 15 55 25
106 21 113 -9 16 -141 114 -154 114 -14 0 -38 -66 -62 -171 l-22 -97 -109 -84
c-214 -164 -526 -362 -698 -443 -138 -65 -132 -67 -130 40 1 50 8 112 15 139
l13 49 69 14 c228 46 434 239 453 426 9 92 -16 125 -197 255 -10 8 -39 14 -64
14 -137 0 -315 -211 -414 -492 -39 -113 -55 -217 -50 -332 5 -129 21 -156 133
-240 99 -74 136 -87 198 -68 117 34 422 206 622 350 61 44 115 79 121 80 7 0
13 -31 17 -77 8 -100 22 -144 65 -194 37 -44 168 -144 207 -159 78 -30 205 81
339 294 31 50 56 82 56 73 0 -9 -25 -137 -56 -284 -126 -608 -232 -1182 -309
-1683 -65 -427 -125 -979 -111 -1033 4 -17 27 -41 67 -69 34 -24 68 -47 75
-53 7 -5 16 -6 20 -2 5 4 11 71 16 148 14 257 115 969 198 1404 10 55 33 179
50 275 114 642 312 1586 459 2190 38 155 39 173 4 200 -144 111 -141 109 -147
88z m-1514 -671 c-16 -34 -54 -89 -84 -122 -58 -62 -138 -117 -138 -94 0 33
90 161 164 233 92 91 107 86 58 -17z"/>
    <path d="M2605 3900 c-67 -14 -166 -96 -232 -192 -133 -193 -203 -399 -204
-596 0 -101 16 -169 49 -205 9 -11 55 -47 102 -81 78 -56 89 -61 135 -60 29 1
77 12 117 28 123 50 423 231 614 369 169 122 264 201 264 219 0 13 -132 108
-150 108 -10 0 -73 -42 -141 -93 -219 -165 -511 -350 -674 -428 -147 -70 -140
-72 -138 36 1 50 8 112 15 139 l13 49 65 14 c126 25 226 80 323 177 73 74 111
138 128 223 17 81 3 132 -47 170 -20 16 -61 48 -91 72 -59 47 -100 61 -148 51z
m99 -197 c-19 -82 -124 -217 -203 -261 -52 -30 -53 -17 -4 68 38 65 180 220
202 220 7 0 9 -10 5 -27z"/>
    <path d="M805 2839 c-61 -33 -211 -120 -335 -193 -124 -73 -253 -148 -287
-167 -35 -18 -63 -36 -63 -39 0 -6 107 -101 127 -113 17 -10 239 109 568 306
82 49 168 99 192 110 24 12 43 26 43 31 0 14 -111 126 -125 126 -6 0 -60 -27
-120 -61z"/>
  </g>
</svg>
